<svg width="200" height="200" viewBox="0 0 200 200" fill="none" xmlns="http://www.w3.org/2000/svg">
<rect width="200" height="200" rx="32" fill="#F2F2F2"/>
<path d="M100 16.6667V183.333" stroke="#09090B" stroke-width="12" stroke-linecap="round" stroke-linejoin="round"/>
<path d="M141.667 41.6667H79.1667C71.4312 41.6667 64.0125 44.7396 58.5427 50.2094C53.0729 55.6792 50 63.0978 50 70.8333C50 78.5688 53.0729 85.9875 58.5427 91.4573C64.0125 96.9271 71.4312 100 79.1667 100H120.833C128.569 100 135.987 103.073 141.457 108.543C146.927 114.013 150 121.431 150 129.167C150 136.902 146.927 144.321 141.457 149.791C135.987 155.26 128.569 158.333 120.833 158.333H50" stroke="#09090B" stroke-width="16" stroke-linecap="round" stroke-linejoin="round"/>
</svg>
