<svg width="200" height="200" viewBox="0 0 200 200" fill="none" xmlns="http://www.w3.org/2000/svg">
<rect width="200" height="200" rx="32" fill="#09090B"/>
<path d="M100.1 25V175.333" stroke="#F2F2F2" stroke-width="12" stroke-linecap="round" stroke-linejoin="round"/>
<path d="M137.683 47.55H81.3083C74.3309 47.55 67.6393 50.3218 62.7055 55.2555C57.7718 60.1893 55 66.8809 55 73.8583C55 80.8357 57.7718 87.5274 62.7055 92.4611C67.6393 97.3949 74.3309 100.167 81.3083 100.167H118.892C125.869 100.167 132.561 102.938 137.494 107.872C142.428 112.806 145.2 119.498 145.2 126.475C145.2 133.452 142.428 140.144 137.494 145.078C132.561 150.012 125.869 152.783 118.892 152.783H55" stroke="#F2F2F2" stroke-width="16" stroke-linecap="round" stroke-linejoin="round"/>
</svg>
